<svg xmlns="http://www.w3.org/2000/svg"
  xmlns:xlink="http://www.w3.org/1999/xlink" version="1.1" x="0px" y="0px" viewBox="0 0 50 62.5" enable-background="new 0 0 50 50" xml:space="preserve">
  <g>
    <path fill="#f9f9f9" d="M30.512,5.077c-1.058-1.329-2.281-2.553-3.645-3.642l-0.66-0.531L25.238,1.55   c-4.905,3.929-7.891,9.406-8.778,15.189l-7.061,7.063v15.328l8.98-8.844c0.41,0.882,0.857,1.751,1.383,2.598l0.353,0.562   l11.418-0.098l0.348-0.54c0.561-0.874,1.038-1.777,1.477-2.696l9.154,9.017V23.801l-7.032-7.033   C34.935,12.58,33.271,8.525,30.512,5.077z M26.119,3.899c0.932,0.818,1.781,1.708,2.535,2.656   c5.047,6.31,5.985,14.844,2.731,22.108c-3.363-2.042-7.807-2.027-11.131,0.006C16.643,20.196,18.887,10.153,26.119,3.899z    M11.773,33.462v-8.679l4.4-4.4c0.002,2.528,0.428,5.06,1.253,7.506L11.773,33.462z M21.435,31.061   c-0.046-0.081-0.083-0.163-0.13-0.246c2.664-1.759,6.303-1.785,9.012-0.022c-0.037,0.062-0.058,0.132-0.1,0.194L21.435,31.061z    M40.141,24.786v8.676l-5.795-5.707c0.844-2.417,1.284-4.925,1.33-7.434L40.141,24.786z"/>
    <path fill="#f9f9f9" d="M25.931,20.271c2.61,0,4.733-2.124,4.733-4.733c0-2.608-2.126-4.734-4.733-4.734   c-2.61,0-4.732,2.126-4.732,4.734C21.198,18.147,23.319,20.271,25.931,20.271z M25.931,13.178c1.301,0,2.359,1.059,2.359,2.36   c0,1.3-1.059,2.359-2.359,2.359c-1.3,0-2.359-1.059-2.359-2.359C23.571,14.237,24.626,13.178,25.931,13.178z"/>
    <path fill="#f9f9f9" d="M25.931,34.52c-1.451,0-2.899,1.266-2.899,3.787c0,5.055,1.298,9.153,2.899,9.153   c1.598,0,2.9-4.099,2.9-9.153C28.828,35.779,27.376,34.517,25.931,34.52z"/>
  </g>
</svg>