<svg xmlns="http://www.w3.org/2000/svg"
  xmlns:xlink="http://www.w3.org/1999/xlink" version="1.1" x="0px" y="0px" viewBox="0 0 64 80" style="enable-background:new 0 0 64 64;" xml:space="preserve">
  <path fill="#f9f9f9" d="M56,43h-7v-9c0-0.6-0.4-1-1-1H32H16c-0.6,0-1,0.4-1,1v9H8c-0.6,0-1,0.4-1,1v10c0,0.6,0.4,1,1,1h16h16h16c0.6,0,1-0.4,1-1V44  C57,43.4,56.6,43,56,43z M47,43h-7h-7v-8h14V43z M17,35h14v8h-7h-7V35z M9,45h7h7v8H9V45z M25,45h7h7v8H25V45z M55,53H41v-8h7h7V53z  "/>
  <path fill="#f9f9f9" d="M54,14h2c0.6,0,1-0.4,1-1s-0.4-1-1-1h-3c-0.6,0-1,0.4-1,1v1h-0.6c-0.1,0-0.3,0-0.4-0.1l-9.4-4.2c-1.1-0.5-2.5-0.3-3.3,0.6  L34.6,14H24c-0.6,0-1,0.4-1,1v10c0,0.6,0.4,1,1,1h16c0.6,0,1-0.4,1-1v-2h0.6c0.7,0.6,1.7,1,2.6,1h0.5c1.1,0,2.1-0.4,2.8-1.2l0.5-0.5  c0.2-0.2,0.4-0.3,0.7-0.3H52v1c0,0.6,0.4,1,1,1h3c0.6,0,1-0.4,1-1s-0.4-1-1-1h-2V14z M39,24H25v-8h14v1h-5c-1.7,0-3,1.3-3,3  s1.3,3,3,3h5V24z M48.8,20c-0.8,0-1.6,0.3-2.1,0.9l-0.5,0.5c-0.4,0.4-0.9,0.6-1.4,0.6h-0.5c-0.5,0-1-0.2-1.4-0.6l-0.1-0.1  C42.5,21.1,42.3,21,42,21h-8c-0.6,0-1-0.4-1-1s0.4-1,1-1h6c0.6,0,1-0.4,1-1v-3c0-0.6-0.4-1-1-1h-2.6l2.3-2.3  c0.3-0.3,0.7-0.4,1.1-0.2l9.4,4.2c0.4,0.2,0.8,0.3,1.2,0.3H52v4H48.8z"/>
  <path fill="#f9f9f9" d="M44.4-7.5c0-0.6-0.4-1-1-1H-7.9c-0.6,0-1,0.4-1,1v85c0,0.6,0.4,1,1,1s1-0.4,1-1v-84h50.3C43.9-6.5,44.4-6.9,44.4-7.5z"/>
</svg>