<svg xmlns="http://www.w3.org/2000/svg"
  xmlns:ooo="http://xml.openoffice.org/svg/export"
  xmlns:xlink="http://www.w3.org/1999/xlink"
  xmlns:presentation="http://sun.com/xmlns/staroffice/presentation"
  xmlns:smil="http://www.w3.org/2001/SMIL20/"
  xmlns:anim="urn:oasis:names:tc:opendocument:xmlns:animation:1.0" version="1.2" viewBox="0 0 2540 3175" preserveAspectRatio="xMidYMid" fill-rule="evenodd" stroke-width="28.222" stroke-linejoin="round" xml:space="preserve" x="0px" y="0px">
  <defs class="ClipPathGroup">
    <clipPath id="a" clipPathUnits="userSpaceOnUse">
      <rect x="0" y="0" width="2540" height="2540"/>
    </clipPath>
  </defs>
  <g class="SlideGroup">
    <g>
      <g>
        <g class="Slide" clip-path="url(#a)">
          <g class="Page">
            <g class="com.sun.star.drawing.ClosedBezierShape">
              <g>
                <rect class="BoundingBox" stroke="none" fill="none" x="213" y="62" width="2115" height="2417"/>
                <path fill="#f9f9f9" stroke="none" d="M 213,685 C 213,678 215,672 218,666 222,660 226,656 232,652 L 1245,67 C 1251,64 1257,62 1264,62 1271,62 1277,64 1283,67 L 2303,651 C 2309,655 2313,659 2317,665 2320,671 2322,677 2322,684 L 2327,1855 C 2327,1862 2325,1868 2322,1874 2318,1880 2314,1884 2308,1888 L 1295,2473 C 1289,2476 1283,2478 1276,2478 1269,2478 1263,2476 1257,2473 L 238,1888 C 232,1884 227,1880 224,1874 220,1868 219,1862 219,1855 L 213,685 Z M 1276,2396 L 1510,2261 1466,2080 1612,1686 1574,1648 1618,1438 1383,1102 1405,892 1256,658 1395,356 1402,223 1264,144 289,707 295,1833 1276,2396 Z"/>
              </g>
            </g>
            <g class="com.sun.star.drawing.PolyPolygonShape">
              <g>
                <rect class="BoundingBox" stroke="none" fill="none" x="601" y="483" width="992" height="1549"/>
                <path fill="#f9f9f9" stroke="none" d="M 757,545 L 773,546 789,548 805,552 819,557 833,563 846,571 858,580 869,590 879,601 888,613 896,626 902,640 907,654 911,669 913,685 914,701 913,717 911,733 907,748 902,763 896,776 888,789 879,801 869,812 858,822 857,823 889,817 895,816 1163,506 1167,501 1173,497 1178,493 1184,490 1190,488 1197,486 1204,485 1211,484 1218,484 1225,484 1231,485 1238,486 1244,489 1251,491 1256,495 1261,499 1266,503 1270,508 1274,514 1277,520 1280,527 1282,533 1283,540 1284,547 1284,554 1284,561 1283,568 1281,575 1279,581 1277,587 1273,593 1269,598 1020,886 1152,958 1279,864 1285,860 1291,857 1297,855 1303,853 1310,852 1317,852 1324,852 1331,853 1338,854 1344,856 1351,858 1357,861 1363,865 1368,869 1373,873 1377,878 1381,884 1384,889 1386,896 1388,902 1389,909 1390,916 1389,923 1389,930 1388,937 1386,944 1383,950 1381,956 1377,962 1373,968 1369,972 1364,977 1210,1091 1205,1094 1199,1097 1192,1099 1186,1101 1179,1102 1176,1102 1171,1104 1164,1106 1157,1107 1150,1107 1144,1107 1137,1106 1130,1105 1124,1103 1118,1100 1048,1062 1092,1304 1242,1231 1249,1227 1256,1224 1258,1223 1265,1220 1273,1218 1281,1217 1290,1216 1299,1216 1307,1218 1316,1219 1324,1222 1333,1225 1341,1229 1348,1234 1355,1239 1361,1244 1367,1251 1370,1254 1566,1441 1572,1447 1577,1454 1581,1462 1585,1469 1588,1478 1590,1486 1591,1495 1592,1504 1591,1512 1590,1521 1589,1530 1586,1538 1583,1546 1579,1554 1575,1561 1569,1567 1563,1573 1556,1578 1549,1582 1541,1585 1533,1588 1525,1590 1516,1592 1507,1592 1498,1592 1489,1591 1481,1590 1472,1587 1464,1584 1457,1580 1450,1576 1443,1570 1276,1411 1090,1502 1475,1880 1481,1886 1486,1893 1490,1900 1493,1908 1496,1917 1497,1925 1499,1934 1499,1943 1499,1952 1498,1960 1496,1969 1494,1977 1490,1985 1487,1993 1482,2000 1476,2006 1470,2012 1463,2016 1456,2021 1448,2024 1440,2027 1431,2029 1422,2030 1414,2030 1405,2030 1396,2029 1387,2027 1379,2024 1371,2021 1364,2017 1357,2013 1351,2007 876,1541 873,1538 868,1536 858,1531 849,1525 840,1518 832,1511 824,1503 817,1494 812,1485 807,1476 803,1466 801,1455 710,963 709,952 709,942 710,931 712,921 715,910 720,900 725,890 730,881 737,872 744,864 752,857 741,856 725,854 710,850 695,845 681,839 669,831 657,822 646,812 636,801 627,789 619,776 613,763 608,748 604,733 602,717 601,701 602,685 604,669 608,654 613,640 619,626 627,613 636,601 646,590 657,580 669,571 681,563 695,557 710,552 725,548 741,546 757,545 Z"/>
              </g>
            </g>
          </g>
        </g>
      </g>
    </g>
  </g>
</svg>