<svg xmlns="http://www.w3.org/2000/svg"
  xmlns:xlink="http://www.w3.org/1999/xlink" version="1.1" x="0px" y="0px" viewBox="0 0 512 640" style="enable-background:new 0 0 512 512;" xml:space="preserve">
  <g>
    <path fill="#f9f9f9" d="M256,26C129.2,26,26,129.2,26,256s103.2,230,230,230s230-103.2,230-230S382.8,26,256,26z M383.1,143.1   l-200,200c-1.9,1.9-4.4,2.9-7.1,2.9c-0.2,0-0.4,0-0.6,0c-2.8-0.2-5.5-1.5-7.3-3.7l-80-100c-3.4-4.3-2.8-10.6,1.6-14.1   c4.3-3.4,10.6-2.8,14.1,1.6l73,91.3l192.1-192.1c3.9-3.9,10.2-3.9,14.1,0C387,132.8,387,139.2,383.1,143.1z"/>
  </g>
</svg>