<svg xmlns="http://www.w3.org/2000/svg"
  xmlns:xlink="http://www.w3.org/1999/xlink" version="1.1" x="0px" y="0px" viewBox="0 0 512 640" style="enable-background:new 0 0 512 512;" xml:space="preserve">
  <g>
    <g>
      <path fill="#f9f9f9" d="M434.889,241c-2.549,0-4.689-1.917-4.97-4.45c-3.633-32.852-16.494-63.895-37.193-89.772    c-1.592-1.989-1.433-4.857,0.369-6.659l32.61-32.611l-21.213-21.213l-32.612,32.612c-1.801,1.803-4.67,1.96-6.658,0.369    c-25.877-20.7-56.919-33.561-89.771-37.193c-2.533-0.28-4.45-2.421-4.45-4.97V31h-30v46.112c0,2.549-1.917,4.689-4.451,4.97    c-32.851,3.632-63.894,16.494-89.771,37.193c-1.989,1.592-4.858,1.433-6.659-0.369l-32.611-32.612l-21.213,21.213l32.612,32.611    c1.801,1.802,1.96,4.669,0.369,6.659c-20.7,25.877-33.561,56.92-37.193,89.771c-0.28,2.534-2.421,4.451-4.97,4.451H31v30h46.112    c2.549,0,4.689,1.917,4.97,4.45c3.632,32.853,16.494,63.895,37.193,89.771c1.592,1.989,1.433,4.857-0.369,6.658l-32.612,32.612    l21.213,21.213l32.611-32.61c1.801-1.802,4.669-1.962,6.659-0.369c25.877,20.699,56.92,33.561,89.772,37.193    c2.533,0.28,4.45,2.421,4.45,4.97V481h30v-46.111c0-2.549,1.917-4.689,4.45-4.97c32.853-3.633,63.895-16.494,89.771-37.193    c1.988-1.591,4.857-1.435,6.658,0.369l32.612,32.61l21.213-21.213l-32.61-32.612c-1.802-1.801-1.961-4.669-0.369-6.658    c20.699-25.877,33.561-56.919,37.193-89.771c0.28-2.533,2.421-4.45,4.97-4.45H481v-30H434.889z M256,371    c-63.411,0-115-51.589-115-115s51.589-115,115-115s115,51.589,115,115S319.411,371,256,371z"/>
      <path fill="#f9f9f9" d="M256,151c-57.897,0-105,47.103-105,105c0,57.897,47.103,105,105,105c57.897,0,105-47.103,105-105    C361,198.103,313.897,151,256,151z"/>
    </g>
  </g>
</svg>