<svg xmlns="http://www.w3.org/2000/svg"
  xmlns:xlink="http://www.w3.org/1999/xlink" version="1.1" x="0px" y="0px" viewBox="0 0 100 125" enable-background="new 0 0 100 100" xml:space="preserve">
  <g>
    <path d="M14.97,6.25c-4.444,0-8.06,3.544-8.06,7.9v9.5c0,0.061,0.003,0.12,0.009,0.193l0.033,1.216h4.903v7.22   c0,1.693,1.397,3.071,3.115,3.071s3.115-1.378,3.115-3.071v-7.22h3.687l1.167-0.07l0.084-1.159l0.008-9.68   C23.03,9.794,19.415,6.25,14.97,6.25z M15.585,32.279c0,0.315-0.276,0.571-0.615,0.571s-0.615-0.256-0.615-0.571v-7.22h1.229   V32.279z M20.529,22.559H9.41V14.15c0-2.978,2.494-5.4,5.56-5.4s5.56,2.422,5.56,5.4L20.529,22.559z"/>
    <path d="M77.016,25.059h4.893v7.22c0,1.693,1.397,3.071,3.115,3.071c1.717,0,3.114-1.378,3.114-3.071v-7.22h3.687l1.163-0.066   l0.088-1.156l0.008-9.687c0-4.356-3.615-7.9-8.06-7.9c-4.445,0-8.062,3.544-8.062,7.9v9.5c0,0.063,0.004,0.125,0.01,0.205   L77.016,25.059z M85.638,32.279c0,0.315-0.275,0.571-0.614,0.571s-0.615-0.256-0.615-0.571v-7.22h1.229V32.279z M79.462,14.15   c0-2.978,2.495-5.4,5.562-5.4c3.065,0,5.56,2.422,5.56,5.4l-0.001,8.409h-11.12V14.15z"/>
    <path d="M40.484,16.542h-4.903v-7.22c0-1.693-1.397-3.071-3.115-3.071s-3.115,1.378-3.115,3.071v7.22h-3.688l-1.174,0.072   l-0.077,1.168l-0.006,9.668c0,4.356,3.616,7.9,8.06,7.9c4.445,0,8.061-3.544,8.061-7.9v-9.5c0-0.063-0.003-0.125-0.009-0.193   L40.484,16.542z M31.852,9.321c0-0.315,0.276-0.571,0.615-0.571s0.615,0.256,0.615,0.571v7.22h-1.229V9.321z M38.027,27.45   c0,2.978-2.495,5.4-5.561,5.4c-3.065,0-5.56-2.422-5.56-5.4l0.001-8.409h11.119V27.45z"/>
    <path d="M49.993,6.25c-4.444,0-8.06,3.544-8.06,7.9v9.5c0,0.059,0.003,0.117,0.008,0.193l0.033,1.216h4.903v7.22   c0,1.693,1.397,3.071,3.115,3.071c1.717,0,3.114-1.378,3.114-3.071v-7.22h3.688l1.169-0.073l0.082-1.163l0.007-9.673   C58.054,9.794,54.438,6.25,49.993,6.25z M50.607,32.279c0,0.315-0.275,0.571-0.614,0.571c-0.339,0-0.615-0.256-0.615-0.571v-7.22   h1.229V32.279z M55.553,22.559h-11.12V14.15c0-2.978,2.494-5.4,5.56-5.4c3.066,0,5.561,2.422,5.561,5.4L55.553,22.559z"/>
    <path d="M70.604,16.542v-7.22c0-1.693-1.397-3.071-3.114-3.071s-3.113,1.378-3.113,3.071v7.22h-3.69L59.5,16.62l-0.065,1.18   l-0.005,9.65c0,4.356,3.615,7.9,8.06,7.9s8.06-3.544,8.06-7.9v-9.5l-0.029-1.409H70.604z M66.876,9.321   c0-0.315,0.275-0.571,0.613-0.571c0.339,0,0.614,0.256,0.614,0.571v7.22h-1.228V9.321z M73.049,27.45c0,2.978-2.494,5.4-5.56,5.4   s-5.56-2.422-5.56-5.4l0.001-8.409h11.118V27.45z"/>
    <path d="M14.97,35.7c-4.444,0-8.06,3.544-8.06,7.9v9.5c0,0.062,0.003,0.122,0.009,0.193l0.034,1.216h4.903v7.22   c0,1.693,1.397,3.071,3.115,3.071s3.115-1.378,3.115-3.071v-7.22h3.687l1.167-0.068l0.084-1.16l0.008-9.68   C23.03,39.244,19.415,35.7,14.97,35.7z M15.585,61.729c0,0.315-0.276,0.571-0.615,0.571s-0.615-0.256-0.615-0.571v-7.22h1.229   V61.729z M20.529,52.009H9.41V43.6c0-2.978,2.494-5.4,5.56-5.4s5.56,2.422,5.56,5.4L20.529,52.009z"/>
    <path d="M85.023,35.7c-4.445,0-8.062,3.544-8.062,7.9v9.5c0,0.064,0.004,0.127,0.01,0.205l0.044,1.204h4.893v7.22   c0,1.693,1.397,3.071,3.115,3.071c1.717,0,3.114-1.378,3.114-3.071v-7.22h3.687l1.163-0.065l0.088-1.155l0.008-9.688   C93.083,39.244,89.468,35.7,85.023,35.7z M85.638,61.729c0,0.315-0.275,0.571-0.614,0.571s-0.615-0.256-0.615-0.571v-7.22h1.229   V61.729z M90.582,52.009h-11.12V43.6c0-2.978,2.495-5.4,5.562-5.4c3.065,0,5.56,2.422,5.56,5.4L90.582,52.009z"/>
    <path d="M40.484,45.991h-4.903v-7.22c0-1.693-1.397-3.071-3.115-3.071s-3.115,1.377-3.115,3.071v7.22h-3.688l-1.174,0.073   l-0.077,1.168L24.407,56.9c0,4.355,3.616,7.899,8.06,7.899c4.445,0,8.061-3.544,8.061-7.899v-9.5c0-0.063-0.003-0.124-0.009-0.193   L40.484,45.991z M31.852,38.771c0-0.315,0.276-0.571,0.615-0.571s0.615,0.256,0.615,0.571v7.22h-1.229V38.771z M38.027,56.9   c0,2.978-2.495,5.399-5.561,5.399c-3.065,0-5.56-2.422-5.56-5.399l0.001-8.409h11.119V56.9z"/>
    <path d="M49.993,35.7c-4.444,0-8.06,3.544-8.06,7.9v9.5c0,0.061,0.003,0.118,0.008,0.193l0.034,1.216h4.903v7.22   c0,1.693,1.397,3.071,3.115,3.071c1.717,0,3.114-1.378,3.114-3.071v-7.22h3.688l1.169-0.072l0.082-1.162l0.007-9.674   C58.054,39.244,54.438,35.7,49.993,35.7z M50.607,61.729c0,0.315-0.275,0.571-0.614,0.571c-0.339,0-0.615-0.256-0.615-0.571v-7.22   h1.229V61.729z M55.553,52.009h-11.12V43.6c0-2.978,2.494-5.4,5.56-5.4c3.066,0,5.561,2.422,5.561,5.4L55.553,52.009z"/>
    <path d="M70.604,45.991v-7.22c0-1.693-1.397-3.071-3.114-3.071s-3.113,1.377-3.113,3.071v7.22h-3.69l-1.186,0.08l-0.065,1.18   L59.43,56.9c0,4.355,3.615,7.899,8.06,7.899s8.06-3.544,8.06-7.899v-9.5l-0.029-1.409H70.604z M66.876,38.771   c0-0.315,0.275-0.571,0.613-0.571c0.339,0,0.614,0.256,0.614,0.571v7.22h-1.228V38.771z M73.049,56.9   c0,2.978-2.494,5.399-5.56,5.399s-5.56-2.422-5.56-5.399l0.001-8.409h11.118V56.9z"/>
    <path d="M14.97,65.15c-4.444,0-8.06,3.544-8.06,7.899v9.5c0,0.061,0.003,0.12,0.009,0.193l0.034,1.216h4.903v7.22   c0,1.693,1.397,3.071,3.115,3.071s3.115-1.378,3.115-3.071v-7.22h3.687l1.167-0.069l0.083-1.16l0.008-9.68   C23.03,68.694,19.415,65.15,14.97,65.15z M15.585,91.179c0,0.315-0.276,0.571-0.615,0.571s-0.615-0.256-0.615-0.571v-7.22h1.229   V91.179z M20.529,81.459H9.41V73.05c0-2.978,2.494-5.399,5.56-5.399s5.56,2.422,5.56,5.399L20.529,81.459z"/>
    <path d="M85.023,65.15c-4.445,0-8.062,3.544-8.062,7.899v9.5c0,0.063,0.004,0.125,0.01,0.205l0.044,1.204h4.893v7.22   c0,1.693,1.397,3.071,3.115,3.071c1.717,0,3.114-1.378,3.114-3.071v-7.22h3.687l1.163-0.065l0.088-1.156l0.008-9.688   C93.083,68.694,89.468,65.15,85.023,65.15z M85.638,91.179c0,0.315-0.275,0.571-0.614,0.571s-0.615-0.256-0.615-0.571v-7.22h1.229   V91.179z M90.582,81.459h-11.12V73.05c0-2.978,2.495-5.399,5.562-5.399c3.065,0,5.56,2.422,5.56,5.399L90.582,81.459z"/>
    <path d="M40.484,75.441h-4.903v-7.221c0-1.693-1.397-3.07-3.115-3.07s-3.115,1.377-3.115,3.07v7.221h-3.688l-1.174,0.072   l-0.077,1.168l-0.006,9.668c0,4.356,3.616,7.9,8.06,7.9c4.445,0,8.061-3.544,8.061-7.9v-9.5c0-0.063-0.003-0.124-0.009-0.192   L40.484,75.441z M31.852,68.221c0-0.314,0.276-0.57,0.615-0.57s0.615,0.256,0.615,0.57v7.221h-1.229V68.221z M38.027,86.35   c0,2.978-2.495,5.4-5.561,5.4c-3.065,0-5.56-2.423-5.56-5.4l0.001-8.408h11.119V86.35z"/>
    <path d="M49.993,65.15c-4.444,0-8.06,3.544-8.06,7.899v9.5c0,0.059,0.003,0.117,0.008,0.193l0.034,1.216h4.903v7.22   c0,1.693,1.397,3.071,3.115,3.071c1.717,0,3.114-1.378,3.114-3.071v-7.22h3.688l1.17-0.072l0.081-1.164l0.007-9.673   C58.054,68.694,54.438,65.15,49.993,65.15z M50.607,91.179c0,0.315-0.275,0.571-0.614,0.571c-0.339,0-0.615-0.256-0.615-0.571   v-7.22h1.229V91.179z M55.553,81.459h-11.12V73.05c0-2.978,2.494-5.399,5.56-5.399c3.066,0,5.561,2.422,5.561,5.399L55.553,81.459z   "/>
    <path d="M70.604,75.441v-7.221c0-1.693-1.397-3.07-3.114-3.07s-3.113,1.377-3.113,3.07v7.221h-3.69L59.5,75.52L59.435,76.7   L59.43,86.35c0,4.356,3.615,7.9,8.06,7.9s8.06-3.544,8.06-7.9v-9.5l-0.03-1.408H70.604z M66.876,68.221   c0-0.314,0.275-0.57,0.613-0.57c0.339,0,0.614,0.256,0.614,0.57v7.221h-1.228V68.221z M73.049,86.35c0,2.978-2.494,5.4-5.56,5.4   s-5.56-2.423-5.56-5.4l0.001-8.408h11.118V86.35z"/>
  </g>
</svg>