<svg xmlns="http://www.w3.org/2000/svg" data-name="Layer 1" viewBox="0 0 96 120" x="0px" y="0px">
  <path fill="#f9f9f9" d="M83.86,63.87V17.38H12.14V63.87H6.5V78.62h83V63.87ZM15.14,20.38H80.86V63.87H15.14ZM56,66.87v2.3H40v-2.3Zm30.5,8.75H9.5V66.87H37v5.3H59v-5.3H86.5Z"/>
  <path fill="#f9f9f9" d="M18.14,60.87H77.86V23.38H18.14ZM30.69,49.92a17.19,17.19,0,0,1,2.43-8.8l2.33,1.48,1.61-2.52-2.19-1.41a17.26,17.26,0,0,1,11.63-6V35.4h3V32.68A17.3,17.3,0,0,1,61.25,38.8l-2,1.28,1.62,2.52L63,41.26a17.19,17.19,0,0,1,2.34,8.66v1.73H52.17L48.06,39.34,44,51.65H30.69ZM49,51.65H47.12l.94-2.82Z"/>
</svg>