<svg xmlns="http://www.w3.org/2000/svg"
  xmlns:xlink="http://www.w3.org/1999/xlink" version="1.1" x="0px" y="0px" viewBox="0 0 512 640" enable-background="new 0 0 512 512" xml:space="preserve">
  <path fill="#f9f9f9" d="M156.27,137.6c0,4.47-1.23,8.66-3.37,12.24c-4.17,7-11.82,11.69-20.57,11.69c-12.34,0-22.5-9.35-23.79-21.35  c-0.09-0.84-0.14-1.71-0.14-2.58c0-4.83,1.43-9.32,3.9-13.08c4.27-6.54,11.65-10.85,20.03-10.85c12,0,21.95,8.83,23.67,20.35  C156.18,135.19,156.27,136.38,156.27,137.6z"/>
  <path fill="#f9f9f9" d="M324.57,418.84c0,13.21-10.721,23.93-23.94,23.93c-0.399,0-0.8-0.01-1.189-0.029c-5.671-0.28-10.82-2.53-14.78-6.09  c-4.891-4.37-7.96-10.74-7.96-17.811c0-12.04,8.89-22,20.46-23.67c1.13-0.17,2.29-0.26,3.47-0.26c4.47,0,8.64,1.22,12.22,3.359  C319.87,402.43,324.57,410.09,324.57,418.84z"/>
  <path fill="#f9f9f9" d="M448.98,202.79c0,13.22-10.711,23.93-23.931,23.93c-2.88,0-5.63-0.51-8.189-1.44c-5.21-1.9-9.58-5.56-12.38-10.26  c-2.131-3.58-3.36-7.76-3.36-12.23c0-13.22,10.72-23.93,23.93-23.93c3.15,0,6.16,0.61,8.91,1.72c5.16,2.06,9.43,5.87,12.07,10.7  C447.91,194.7,448.98,198.62,448.98,202.79z"/>
  <g>
    <path fill="#f9f9f9" d="M326.7,235.24c-0.16-6.6-0.41-13.15-0.74-19.62c-0.91-18.19-2.45-35.82-4.57-52.55c-0.699-5.56-1.47-11.01-2.3-16.36   c-2.88-18.57-6.52-35.83-10.859-51.27C295.09,48.7,277.03,24,256,24c-21.03,0-39.09,24.7-52.23,71.44   c-4.34,15.44-7.98,32.7-10.86,51.27c-0.83,5.35-1.6,10.8-2.3,16.36c-2.12,16.73-3.66,34.36-4.57,52.55   c-0.33,6.47-0.58,13.01-0.74,19.61c-0.18,6.87-0.27,13.79-0.27,20.77c0,6.97,0.09,13.9,0.27,20.76   c0.16,6.601,0.41,13.15,0.74,19.62c0.91,18.19,2.45,35.82,4.57,52.55c0.7,5.561,1.47,11.011,2.3,16.36   c2.88,18.57,6.52,35.83,10.86,51.27C216.91,463.29,234.97,488,256,488c13.55,0,25.87-10.26,36.44-30.07   c-5.381-1.13-10.36-3.34-14.71-6.399C269.72,466.14,261.91,472,256,472c-9.68,0-24.44-15.7-36.83-59.77   c-4.46-15.87-8.16-33.761-11.02-53.101c-0.81-5.39-1.54-10.899-2.21-16.51c-1.37-11.54-2.47-23.5-3.27-35.78   c-0.43-6.399-0.77-12.89-1.02-19.46c-0.41-10.3-0.62-20.78-0.62-31.38c0-10.6,0.21-21.09,0.62-31.39   c0.25-6.56,0.59-13.05,1.02-19.45c0.8-12.28,1.9-24.24,3.27-35.78c0.67-5.61,1.4-11.12,2.21-16.51   c2.86-19.34,6.56-37.23,11.02-53.1C231.56,55.7,246.32,40,256,40c9.68,0,24.44,15.7,36.83,59.77c4.46,15.87,8.16,33.76,11.02,53.1   c0.811,5.39,1.54,10.9,2.21,16.51c1.37,11.54,2.471,23.5,3.27,35.78c0.43,6.4,0.77,12.89,1.02,19.46   c0.41,10.3,0.62,20.78,0.62,31.38c0,10.6-0.21,21.08-0.62,31.38c-0.25,6.57-0.59,13.06-1.02,19.46c-0.8,12.28-1.9,24.24-3.27,35.78   c-0.67,5.61-1.399,11.12-2.21,16.51c-1,6.78-2.109,13.38-3.31,19.78h0.09c5.53,0,10.8,1.13,15.59,3.16   c1.03-5.46,1.99-11.061,2.87-16.78c0.83-5.35,1.601-10.8,2.3-16.36c2.12-16.729,3.66-34.359,4.57-52.55   c0.33-6.47,0.58-13.02,0.74-19.62c0.18-6.859,0.27-13.79,0.27-20.76C326.97,249.03,326.88,242.1,326.7,235.24z"/>
  </g>
  <g>
    <path fill="#f9f9f9" d="M456.92,140c-6.36-11.02-19.88-16.6-40.17-16.6c-24.96,0-59.17,8.37-97.66,23.31c-5.01,1.94-10.09,4-15.24,6.16   c-15.489,6.51-31.54,14-47.85,22.34c-5.78,2.96-11.58,6.03-17.41,9.2c-6.01,3.27-12.04,6.65-18.08,10.13   c-6.04,3.49-11.99,7.02-17.84,10.62c-5.64,3.44-11.19,6.93-16.63,10.46c-15.32,9.89-29.83,20.04-43.28,30.26   c-4.44,3.37-8.76,6.74-12.95,10.12c-14.65,11.78-27.76,23.56-38.97,35.05C56.93,325.79,44.57,353.79,55.08,372   c6.36,11.01,19.88,16.6,40.17,16.6c24.96,0,59.17-8.369,97.66-23.31c5.01-1.94,10.09-4,15.24-6.16c15.49-6.51,31.54-14,47.85-22.34   c5.78-2.96,11.58-6.03,17.41-9.2c6.01-3.27,12.04-6.649,18.08-10.13c6.04-3.49,11.99-7.02,17.84-10.62   c5.64-3.439,11.189-6.93,16.63-10.46c15.32-9.89,29.83-20.04,43.28-30.26c4.439-3.37,8.76-6.74,12.95-10.12   c7.89-6.35,15.34-12.7,22.279-19c-4.63-2.8-8.66-6.51-11.81-10.89c-7.271,6.56-15.101,13.16-23.42,19.77   c-4.25,3.38-8.641,6.75-13.141,10.12c-9.319,6.97-19.149,13.92-29.399,20.76c-5.34,3.57-10.79,7.12-16.351,10.62   c-8.72,5.51-17.689,10.93-26.859,16.23c-9.17,5.29-18.351,10.34-27.49,15.13c-5.83,3.06-11.64,6.01-17.41,8.85   c-11.06,5.44-21.98,10.46-32.65,15.03c-5.17,2.21-10.29,4.32-15.33,6.31c-38.02,15.051-71.8,23.67-95.36,23.67   c-13.77,0-23.11-3.06-26.31-8.6c-4.84-8.38,1.38-29.01,33.35-61.78c11.52-11.8,25.16-23.95,40.47-36.1   c4.25-3.38,8.64-6.75,13.14-10.12c9.32-6.98,19.15-13.92,29.4-20.77c5.34-3.57,10.79-7.12,16.35-10.62   c8.72-5.51,17.69-10.92,26.86-16.22c9.17-5.29,18.35-10.34,27.49-15.13c5.83-3.06,11.64-6.01,17.41-8.85   c11.06-5.44,21.979-10.46,32.649-15.03c5.171-2.21,10.29-4.32,15.33-6.31c38.021-15.05,71.801-23.67,95.36-23.67   c13.77,0,23.11,3.05,26.31,8.6c2.16,3.73,2.12,9.89-1.409,18.47c5.04,2.32,9.52,5.65,13.159,9.74   C461.66,161.75,462.42,149.53,456.92,140z"/>
  </g>
  <g>
    <path fill="#f9f9f9" d="M421.16,291.05c-11.21-11.49-24.32-23.27-38.97-35.05c-4.19-3.38-8.511-6.75-12.95-10.12   c-13.45-10.22-27.96-20.37-43.28-30.26c-5.44-3.53-10.99-7.02-16.63-10.46c-5.85-3.6-11.8-7.13-17.84-10.62   c-6.04-3.48-12.07-6.86-18.08-10.13c-5.83-3.17-11.63-6.24-17.41-9.2c-16.31-8.34-32.36-15.83-47.85-22.34   c-5.15-2.16-10.23-4.22-15.24-6.16c-7.04-2.74-13.94-5.25-20.67-7.53c-0.22,5.58-1.59,10.88-3.88,15.65   c7.22,2.47,14.65,5.22,22.25,8.24c5.04,1.99,10.16,4.1,15.33,6.31c10.67,4.57,21.59,9.59,32.65,15.03   c5.77,2.84,11.58,5.79,17.41,8.85c9.14,4.79,18.32,9.84,27.49,15.13c9.17,5.3,18.14,10.72,26.859,16.23   c5.561,3.5,11.011,7.05,16.351,10.62c10.25,6.84,20.08,13.79,29.399,20.76c4.5,3.37,8.891,6.74,13.141,10.12   c15.31,12.149,28.95,24.3,40.47,36.1c31.97,32.771,38.19,53.4,33.35,61.78c-3.199,5.54-12.54,8.6-26.31,8.6   c-23.56,0-57.34-8.619-95.36-23.67c-5.04-1.989-10.159-4.1-15.33-6.31c-10.67-4.57-21.59-9.59-32.649-15.03   c-5.771-2.84-11.58-5.79-17.41-8.85c-9.14-4.79-18.32-9.84-27.49-15.13c-9.17-5.301-18.14-10.721-26.86-16.23   c-5.56-3.5-11.01-7.05-16.35-10.62c-10.25-6.84-20.08-13.79-29.4-20.76c-4.5-3.37-8.89-6.74-13.14-10.12   c-15.31-12.15-28.95-24.3-40.47-36.1C70.32,177.01,64.1,156.38,68.94,148c2.98-5.16,11.27-8.16,23.5-8.55   c-0.03-0.61-0.04-1.23-0.04-1.85c0-5,0.92-9.78,2.61-14.2c-20.16,0.04-33.6,5.63-39.93,16.6c-10.51,18.21,1.85,46.2,35.76,80.95   c11.21,11.49,24.32,23.27,38.97,35.05c4.19,3.38,8.51,6.75,12.95,10.12c13.45,10.22,27.96,20.37,43.28,30.26   c5.44,3.53,10.99,7.02,16.63,10.46c5.85,3.601,11.8,7.13,17.84,10.62c6.04,3.48,12.07,6.86,18.08,10.13   c5.83,3.17,11.63,6.24,17.41,9.2c16.31,8.34,32.36,15.83,47.85,22.34c5.15,2.16,10.23,4.22,15.24,6.16   c38.49,14.94,72.7,23.31,97.66,23.31c20.29,0,33.81-5.59,40.17-16.6C467.43,353.79,455.07,325.79,421.16,291.05z"/>
  </g>
  <circle fill="#f9f9f9" cx="256" cy="256" r="27.432"/>
</svg>