<svg xmlns="http://www.w3.org/2000/svg"
  xmlns:xlink="http://www.w3.org/1999/xlink"
  xmlns:serif="http://www.serif.com/" viewBox="0 0 24 30" version="1.1" xml:space="preserve" style="" x="0px" y="0px" fill-rule="evenodd" clip-rule="evenodd" stroke-linejoin="round" stroke-miterlimit="2">
  <g>
    <path fill="#f9f9f9" d="M20.25,4c0,-0.729 -0.29,-1.429 -0.805,-1.945c-0.516,-0.515 -1.216,-0.805 -1.945,-0.805c-2.871,0 -8.129,0 -11,0c-0.729,-0 -1.429,0.29 -1.945,0.805c-0.515,0.516 -0.805,1.216 -0.805,1.945c-0,3.832 -0,12.168 -0,16c-0,0.729 0.29,1.429 0.805,1.945c0.516,0.515 1.216,0.805 1.945,0.805c2.871,0 8.129,0 11,0c0.729,0 1.429,-0.29 1.945,-0.805c0.515,-0.516 0.805,-1.216 0.805,-1.945l-0,-16Zm-13.78,14.53l1,1c0.293,0.293 0.767,0.293 1.06,0l2,-2c0.293,-0.292 0.293,-0.768 0,-1.06c-0.292,-0.293 -0.768,-0.293 -1.06,-0l-1.47,1.469c-0,0 -0.47,-0.469 -0.47,-0.469c-0.292,-0.293 -0.768,-0.293 -1.06,-0c-0.293,0.292 -0.293,0.768 -0,1.06Zm6.53,0.22l3.5,0c0.414,0 0.75,-0.336 0.75,-0.75c0,-0.414 -0.336,-0.75 -0.75,-0.75l-3.5,0c-0.414,0 -0.75,0.336 -0.75,0.75c0,0.414 0.336,0.75 0.75,0.75Zm-3.439,-6.75l0.469,-0.47c0.293,-0.292 0.293,-0.768 0,-1.06c-0.292,-0.293 -0.768,-0.293 -1.06,-0l-0.47,0.469l-0.47,-0.469c-0.292,-0.293 -0.768,-0.293 -1.06,-0c-0.293,0.292 -0.293,0.768 -0,1.06l0.469,0.47l-0.469,0.47c-0.293,0.292 -0.293,0.768 -0,1.06c0.292,0.293 0.768,0.293 1.06,0l0.47,-0.469l0.47,0.469c0.292,0.293 0.768,0.293 1.06,0c0.293,-0.292 0.293,-0.768 0,-1.06l-0.469,-0.47Zm3.439,0.75l3.5,0c0.414,0 0.75,-0.336 0.75,-0.75c0,-0.414 -0.336,-0.75 -0.75,-0.75l-3.5,0c-0.414,0 -0.75,0.336 -0.75,0.75c0,0.414 0.336,0.75 0.75,0.75Zm-6.53,-6.22l1,1c0.293,0.293 0.767,0.293 1.06,0l2,-2c0.293,-0.292 0.293,-0.768 0,-1.06c-0.292,-0.293 -0.768,-0.293 -1.06,-0l-1.47,1.469c-0,0 -0.47,-0.469 -0.47,-0.469c-0.292,-0.293 -0.768,-0.293 -1.06,-0c-0.293,0.292 -0.293,0.768 -0,1.06Zm6.53,0.22l3.5,-0c0.414,-0 0.75,-0.336 0.75,-0.75c-0,-0.414 -0.336,-0.75 -0.75,-0.75l-3.5,-0c-0.414,-0 -0.75,0.336 -0.75,0.75c-0,0.414 0.336,0.75 0.75,0.75Z"/>
  </g>
</svg>